{"title":"The Fifth Element(1997)MP-4[DaScubaDude]","uid":12357365,"size":1261426480,"categoryP":"video","categoryS":"movies","magnet":"?xt=urn:btih:5cc4c4c671fb371cf5f11ea1d894370292636d8b&amp;dn=The+Fifth+Element%281997%29MP-4%5BDaScubaDude%5D&amp;tr=udp%3A%2F%2Ftracker.openbittorrent.com%3A80&amp;tr=udp%3A%2F%2Fopen.demonii.com%3A1337&amp;tr=udp%3A%2F%2Ftracker.coppersurfer.tk%3A6969&amp;tr=udp%3A%2F%2Fexodus.desync.com%3A6969","seeders":1,"leechers":0,"uploader":"dascuba","files":1,"time":1441490046,"description":"The Fifth Element (1997)\nPG-13  |  126 min  |  Action, Adventure, Romance  |  9 May 1997 (USA)\n7.6 Your rating:   -/10   Ratings: 7.6/10 from 314,246 users   Metascore: 52/100 \nReviews: 734 user | 164 critic | 22 from Metacritic.com\nIn the colorful future, a cab driver unwittingly becomes the central figure in the search for a legendary cosmic weapon to keep Evil and Mr Zorg at bay.\n\nDirector: Luc Besson\nWriters: Luc Besson (story), Luc Besson (screenplay), 1 more credit Â»\nStars: Bruce Willis, Milla Jovovich, Gary Oldman\n\nGeneral\nComplete name                         : C:The Fifth ElementDVD_VIDEO_Title1.mp4\nFormat                                   : MPEG-4\nFormat profile                           : Base Media\nCodec ID                                 : isom\nFile size                                : 1.17 GiB\nDuration                                 : 2h 5mn\nOverall bit rate mode                    : Variable\nOverall bit rate                         : 1 337 Kbps\nMovie name                               : DVD_VIDEO\nGenre                                    : Science_Fiction\nWriting application                      : Lavf54.6.100\n\nVideo\nID                                       : 1\nFormat                                   : AVC\nFormat/Info                              : Advanced Video Codec\nFormat profile                           : Baseline@L3\nFormat settings, CABAC                   : No\nFormat settings, ReFrames                : 6 frames\nCodec ID                                 : avc1\nCodec ID/Info                            : Advanced Video Coding\nDuration                                 : 2h 5mn\nBit rate                                 : 1 203 Kbps\nWidth                                    : 720 pixels\nHeight                                   : 404 pixels\nDisplay aspect ratio                     : 16:9\nFrame rate mode                          : Constant\nFrame rate                               : 29.970 fps\nColor space                              : YUV\nChroma subsampling                       : 4:2:0\nBit depth                                : 8 bits\nScan type                                : Progressive\nBits/(Pixel*Frame)                       : 0.138\nStream size                              : 1.06 GiB (90%)\n\nAudio\nID                                       : 2\nFormat                                   : AAC\nFormat/Info                              : Advanced Audio Codec\nFormat profile                           : LC\nCodec ID                                 : 40\nDuration                                 : 2h 5mn\nBit rate mode                            : Variable\nBit rate                                 : 128 Kbps\nMaximum bit rate                         : 180 Kbps\nChannel(s)                               : 2 channels\nChannel positions                        : Front: L R\nSampling rate                            : 44.1 KHz\nCompression mode                         : Lossy\nStream size                              : 115 MiB (10%)","torrent":{"xt":"urn:btih:5cc4c4c671fb371cf5f11ea1d894370292636d8b","amp;dn":"The+Fifth+Element%281997%29MP-4%5BDaScubaDude%5D","amp;tr":["udp%3A%2F%2Ftracker.openbittorrent.com%3A80","udp%3A%2F%2Fopen.demonii.com%3A1337","udp%3A%2F%2Ftracker.coppersurfer.tk%3A6969","udp%3A%2F%2Fexodus.desync.com%3A6969"],"infoHash":"5cc4c4c671fb371cf5f11ea1d894370292636d8b","infoHashBuffer":{"type":"Buffer","data":[92,196,196,198,113,251,55,28,245,241,30,161,216,148,55,2,146,99,109,139]},"announce":[],"urlList":[]}}